<?xml version="1.0" encoding="utf-8"?>
<!-- Generator: Adobe Illustrator 21.0.2, SVG Export Plug-In . SVG Version: 6.00 Build 0)  -->
<svg version="1.1" id="Layer_1" xmlns="http://www.w3.org/2000/svg" xmlns:xlink="http://www.w3.org/1999/xlink" x="0px" y="0px"
	 viewBox="0 0 5 8" style="enable-background:new 0 0 5 8;" xml:space="preserve">
<g>
	<path d="M4.7,4.2L1.1,7.8c0,0-0.1,0.1-0.2,0.1c-0.1,0-0.1,0-0.2-0.1L0.3,7.4c0,0-0.1-0.1-0.1-0.2c0-0.1,0-0.1,0.1-0.2L3.4,4
		L0.3,0.9c0,0-0.1-0.1-0.1-0.2s0-0.1,0.1-0.2l0.4-0.4c0,0,0.1-0.1,0.2-0.1c0.1,0,0.1,0,0.2,0.1l3.6,3.6c0,0,0.1,0.1,0.1,0.2
		S4.7,4.1,4.7,4.2z"/>
</g>
</svg>
