<?xml version="1.0" encoding="utf-8"?>
<!-- Generator: Adobe Illustrator 21.0.2, SVG Export Plug-In . SVG Version: 6.00 Build 0)  -->
<svg version="1.1" id="Layer_1" xmlns="http://www.w3.org/2000/svg" xmlns:xlink="http://www.w3.org/1999/xlink" x="0px" y="0px"
	 viewBox="0 0 20 20" style="enable-background:new 0 0 20 20;" xml:space="preserve">
<style type="text/css">
	.st0{display:none;}
	.st1{display:inline;}
</style>
<g class="st0">
	<path class="st1" d="M17.7,5.9c0,0.2,0,0.3,0,0.5c0,5.2-4,11.3-11.3,11.3c-2.2,0-4.3-0.7-6.1-1.8c0.3,0,0.6,0,1,0
		c1.9,0,3.6-0.6,4.9-1.7c-1.7,0-3.2-1.2-3.7-2.8c0.2,0,0.5,0.1,0.7,0.1c0.4,0,0.7,0,1-0.1c-1.8-0.4-3.2-2-3.2-3.9c0,0,0,0,0,0
		C1.6,7.8,2.2,8,2.9,8C1.8,7.3,1.1,6.1,1.1,4.7c0-0.7,0.2-1.4,0.5-2c2,2.4,4.9,4,8.2,4.2C9.8,6.6,9.8,6.3,9.8,6c0-2.2,1.8-4,4-4
		c1.1,0,2.2,0.5,2.9,1.3c0.9-0.2,1.8-0.5,2.5-1c-0.3,0.9-0.9,1.7-1.7,2.2c0.8-0.1,1.6-0.3,2.3-0.6C19.1,4.6,18.5,5.3,17.7,5.9z"/>
</g>
<g class="st0">
	<path class="st1" d="M14.5,3.3h-1.9c-1.5,0-1.8,0.7-1.8,1.7v2.3h3.5l-0.5,3.6h-3.1V20H7.2v-9.1H4.1V7.3h3.1V4.7
		c0-3,1.9-4.7,4.6-4.7c1.3,0,2.4,0.1,2.7,0.1V3.3z"/>
</g>
<g>
	<path d="M19.4,13.8c-0.1,1.5-0.4,2.8-1.5,4s-2.4,1.4-4,1.5c-1.3,0.1-2.6,0.1-3.9,0.1s-2.6,0-3.9-0.1c-1.5-0.1-2.8-0.4-4-1.5
		s-1.5-2.4-1.5-4c-0.1-1.3-0.1-2.6-0.1-3.9s0-2.6,0.1-3.9C0.7,4.5,1,3.1,2.2,2s2.4-1.4,4-1.5C7.4,0.4,8.7,0.4,10,0.4s2.6,0,3.9,0.1
		c1.5,0.1,2.8,0.4,4,1.5s1.5,2.4,1.5,4c0.1,1.3,0.1,2.6,0.1,3.9S19.4,12.5,19.4,13.8z M4.4,2.5C4,2.7,3.7,2.9,3.4,3.2
		C3,3.5,2.8,3.9,2.6,4.3C2.2,5.5,2.3,8.5,2.3,9.9s-0.1,4.3,0.4,5.6c0.2,0.4,0.4,0.7,0.7,1.1C3.7,16.8,4,17,4.4,17.2
		c1.2,0.5,4.2,0.4,5.6,0.4s4.3,0.1,5.6-0.4c0.4-0.2,0.7-0.4,1.1-0.7c0.3-0.3,0.5-0.7,0.7-1.1c0.5-1.2,0.4-4.2,0.4-5.6
		s0.1-4.3-0.4-5.6c-0.2-0.4-0.4-0.7-0.7-1.1c-0.3-0.3-0.7-0.5-1.1-0.7C14.3,2,11.4,2.1,10,2.1S5.7,2,4.4,2.5z M10,14.7
		c-2.7,0-4.8-2.2-4.8-4.8S7.3,5,10,5s4.8,2.2,4.8,4.8S12.7,14.7,10,14.7z M10,6.7c-1.7,0-3.1,1.4-3.1,3.1S8.3,13,10,13
		s3.1-1.4,3.1-3.1S11.7,6.7,10,6.7z M15,6c-0.6,0-1.1-0.5-1.1-1.1s0.5-1.1,1.1-1.1c0.6,0,1.1,0.5,1.1,1.1S15.7,6,15,6z"/>
</g>
</svg>
