<?xml version="1.0" encoding="utf-8"?>
<!-- Generator: Adobe Illustrator 21.0.2, SVG Export Plug-In . SVG Version: 6.00 Build 0)  -->
<svg version="1.1" id="Layer_1" xmlns="http://www.w3.org/2000/svg" xmlns:xlink="http://www.w3.org/1999/xlink" x="0px" y="0px"
	 viewBox="0 0 212 22" style="enable-background:new 0 0 212 22;" xml:space="preserve">
<style type="text/css">
	.st0{fill:#730004;}
	.st1{fill:none;}
</style>
<g>
	<g>
		<path class="st0" d="M134.4,10.3c0,2-0.2,4,0,6c0.1,1.6,0.4,3.4,2,4c0.4,0.1,0.8,0.3,1.2,0.7c-3.7,0.2-7.3,0.2-11,0.1
			c0-0.1,0-0.2-0.1-0.4c0.7-0.3,1.6-0.5,2.2-1.1c0.5-0.5,0.7-1.2,0.7-2c0-4.6,0-9.2,0-13.8c0-0.8-0.3-1.5-0.8-2
			c-0.6-0.6-1.4-0.9-2.2-1.2c0-0.1,0-0.2,0-0.3c2.9-0.2,5.9-0.1,8.8-0.2c2.7-0.1,5.5-0.3,8.1,0.4c1.4,0.4,2.8,1.1,3.9,2.1
			c1.1,1.1,1.6,2.8,0.9,4.3c-0.9,1.9-3,2.2-4.7,2.8c-0.3,0.1-0.7,0.2-1.2,0.3c0.3,0.3,0.4,0.5,0.5,0.5c2.5,1.2,4.4,3.1,5.9,5.4
			c0.6,0.9,1.3,1.9,2,2.7c0.6,0.6,1.2,1.2,1.9,1.7c0.5,0.4,1.3,0.8,1.6,1.5c-0.7,0.1-1.3,0.1-2,0c-0.6-0.1-1.1-0.2-1.7-0.4
			c-1.1-0.3-2.1-0.7-3-1.3c-2-1.1-3.6-2.9-4.8-4.9c-0.6-1.1-1.2-2.2-1.8-3.2c-0.6-1-1.5-1.7-2.6-1.9
			C137.1,10.1,135.7,10.3,134.4,10.3z M134.5,9.5c2,0.1,3.9,0.2,5.9-0.2c1.4-0.3,2.6-1.1,2.9-2.7c0.2-1,0.2-2.2-0.3-3.1
			c-0.5-1-1.3-1.7-2.3-2.2c-0.9-0.5-2-0.6-3-0.6c-0.8,0-1.7,0.1-2.4,0.7c-0.7,0.6-1,1.5-1,2.4c-0.1,1.6,0,3.1,0,4.7
			C134.4,8.8,134.4,9.1,134.5,9.5z M129.2,1.1c1.1,1.8,1.1,1.8,1.1,4.3c0,3.8,0,7.6,0,11.4c0,1.2,0.2,2.4-1.1,3.2
			c0.1,0.1,0.1,0.1,0.2,0.2c1.4,0,2.8,0,4.2,0c-1.1-1-0.8-2.3-0.8-3.5c0-3,0-6,0-9c0-1.3,0-2.6,0-3.9c0-1,0.2-2,1.1-2.5
			c-0.1-0.1-0.1-0.1-0.2-0.2C132.2,1.1,130.7,1.1,129.2,1.1z M141,10.9c1.4,2.3,2.6,4.8,4.4,6.7c1.6,1.6,3.6,3,5.8,3.4
			c-1.2-1.3-2.4-2.6-3.5-3.9c-0.8-1-1.5-2.1-2.3-3.1C144.2,12.5,142.8,11.4,141,10.9z M142.4,1.4c2.4,3.3,2.4,4.3,0.3,7.7
			c1.4,0.1,3.5-1.4,3.9-2.8c0.1-0.4,0.2-0.8,0.1-1.1C146.5,3.4,144.2,1.4,142.4,1.4z"/>
		<path class="st0" d="M180.7,9.4c0.2,1.2,0.4,2.2,0.6,3.3c-0.1,0.1-0.2,0.1-0.3,0.2c-0.2-0.2-0.4-0.4-0.6-0.7
			c-0.7-1.3-1.9-2.2-3.2-2.7c-1.1-0.4-3-0.7-3.4,0.9c-0.2,0.7,0.2,1.2,0.7,1.5c0.6,0.5,1.4,0.8,2.1,1.1c1.4,0.7,2.9,1.4,4.1,2.6
			c1.3,1.3,1.3,3.3,0,4.7c-1.9,1.9-4.9,1.7-7.3,1.4c-0.7-0.1-1.4-0.2-2-0.4c-0.5-0.1-1-0.2-1.4-0.6c-0.3-0.4-0.3-0.9-0.3-1.4
			c-0.1-0.7-0.1-1.3-0.2-2c-0.3,0.3-0.5,0.3-0.6,0.5c-3.1,4.5-10.3,5.1-14.6,1.5c-3.2-2.6-3.1-6.4,0.1-8.9c4-3.1,10-2.7,13.6,0.8
			c1.1,1.1,1.7,2.4,1.7,4.1c0,3,3.3,6.1,6.1,5.8c0.9-0.1,1.9-0.6,2.3-1.6c0.3-0.8-0.1-1.7-0.8-2.1c-1.8-1.2-3.8-1.9-5.5-3.2
			c-1.6-1.2-1.6-3.5,0-4.7c0.4-0.3,0.8-0.5,1.2-0.7C175.7,8.2,178.2,8.7,180.7,9.4z M156.5,15.1c0.3,1.1,0.4,2.3,0.8,3.3
			c0.7,1.6,1.9,2.5,3.6,2.5c1.7,0,2.8-0.9,3.5-2.5c1-2.1,0.9-4.3,0.2-6.5c-0.3-1.1-1-2.1-2-2.6c-0.9-0.5-2-0.5-3-0.2
			C157.2,9.9,157,12.9,156.5,15.1z M178.3,20.9c1.6-0.4,2.7-2.2,1.7-3.8c-1.4-2-3.9-2.7-5.8-3.8c-1.7-1-1.9-1.6-1.2-3.5
			c-1,0.4-1.8,1.7-1.4,2.8c0.2,0.7,0.8,1.1,1.3,1.5c0.7,0.5,1.5,0.9,2.2,1.3c1,0.6,2.1,1.2,3.1,1.9c0.9,0.7,1.1,1.7,0.6,2.8
			C178.6,20.3,178.5,20.5,178.3,20.9z M164.3,9.9c2,3.5,2.3,7-0.3,10.5c2.4-0.8,4.3-3.3,4.2-5.3C168.2,12.9,166.2,10.4,164.3,9.9z
			 M156.7,10c-2.1,0.6-4,3-4,5c0,2,1.7,4.2,3.9,4.9C154.4,16.6,154.5,13.4,156.7,10z M170.6,19.6c-0.1,0.1-0.2,0.1-0.3,0.2
			c0.2,0.3,0.2,0.7,0.5,0.9c0.4,0.3,0.8,0.4,1.5,0C171.6,20.3,171.1,19.9,170.6,19.6z"/>
		<path class="st0" d="M102.3,21.8c-1.9,0-3.9,0-5.8,0c-0.2-0.5-0.3-0.8-0.5-1.3c-1,0.5-1.9,1-3,1.2c-1,0.2-2,0.3-2.9,0.1
			c-2-0.3-3.9-1.2-5.2-2.8c-1.8-2.1-1.7-5,0-7.3c2.3-3,6.9-4.5,10.4-2.4c0.2,0.1,0.4,0.1,0.7,0.3c0.1-1.8,0.1-3.6,0-5.4
			c0-2.1,0-2.1-1.6-3.6c0.5-0.4,4.8-0.9,6-0.5c0,0.4,0.1,0.9,0.1,1.4c0,5.3,0.1,10.6,0.1,15.9c0,0.1,0,0.1,0,0.2
			c0,1.6-0.1,3.3,2,3.9C102.4,21.6,102.3,21.7,102.3,21.8z M96.1,15c0,0-0.1,0-0.1,0c0-0.9-0.1-1.8,0-2.7c0.1-0.8-0.2-1.6-0.8-2.1
			c-0.7-0.5-1.6-1-2.5-1.1c-1.7-0.3-3.3,0.6-4,2.2c-1.1,2.5-1,5,0.1,7.4c0.7,1.5,2,2.5,3.6,2.2c0.9-0.1,1.9-0.7,2.7-1.2
			c0.7-0.4,1-1.1,0.9-1.9C96.1,16.9,96.1,16,96.1,15z M96.3,0.8c0.2,1.1,0.4,2,0.4,3c0.1,5.3,0.1,10.5,0.1,15.8
			c0,0.5,0.1,0.9,0.1,1.4c0.9,0,1.7,0,2.4,0c-0.1-1.2-0.2-2.2-0.2-3.3C99,12.5,99,7.4,98.9,2.2c0-0.5-0.1-0.9-0.1-1.4
			C97.8,0.8,97,0.8,96.3,0.8z M89,21c-3.3-3.3-3.3-6.8-1.1-10.6c-1.6,0.5-3.9,3.2-3.7,5.3C84.3,18,86.1,20.1,89,21z"/>
		<path class="st0" d="M52.8,6.2c-1.2-2.1-2.3-4.2-4.6-4.9c-1-0.3-2.2-0.4-3.1,0c-0.9,0.4-1.2,1.3-1.2,2.3c0,4.6,0,9.3,0.2,13.9
			c0.1,2.1,0.9,3,2.9,3.6c0.3,0.1,0.6,0.3,0.9,0.4c0,0.2-0.1,0.3-0.1,0.5c-4-0.1-8-0.2-12.1-0.4c0-0.1,0-0.3-0.1-0.4
			c1.1-0.4,2.6-0.7,3.2-1.9c0.3-0.5,0.3-1.1,0.3-1.6c0-1,0-1.9,0-2.9c-0.1-3.8-0.1-7.5-0.3-11.3c-0.1-2.1-1.9-3.1-3.7-2.8
			c-2.1,0.4-3.7,1.9-4.5,3.9c-0.1,0.3-0.3,0.7-0.6,1.1c-0.5-0.8-0.5-4,0.1-5.7C30.8,0.1,31.4,0,32.2,0c0.8,0,1.5,0,2.3,0
			c1.5,0,3,0.1,4.6,0.1c3,0.1,6,0.1,9,0.2c1.6,0,3.1,0,4.6,0.2c0.2,1.9,0.7,3.7,0.5,5.6C53,6.1,52.9,6.1,52.8,6.2z M42.9,20.7
			c-0.1-0.6-0.3-1.2-0.4-1.8c-0.1-0.6-0.1-1.3-0.1-1.9c0-1.3-0.1-2.7-0.1-4c-0.1-2.7-0.1-5.4-0.2-8.1c0-1.3-0.3-2.7,0.9-3.8
			c-1.4,0-2.8,0-4.4,0c1,1,1.1,2.1,1.1,3.3c0.1,3,0.1,6,0.2,9c0,1.4,0,2.9,0.1,4.3c0,1.1,0,2.1-0.9,2.9c0.1,0.1,0.1,0.1,0.2,0.2
			C40.6,20.7,41.8,20.7,42.9,20.7z M30.6,0.9c0,0.4-0.1,0.8-0.1,1.1c0.1,0,0.2,0.1,0.3,0.1c0.3-0.3,0.6-0.7,1.1-1.2
			C31.4,0.9,31.1,0.9,30.6,0.9z M50,1.4c0.4,0.3,0.8,0.6,1.3,1C51.4,1.2,50.9,1,50,1.4z"/>
		<path class="st0" d="M211.5,21.9c-2,0-4.1,0-6.1,0c-0.2-0.4-0.4-0.7-0.6-1.1c-1.1,0.5-2.1,1-3.3,1.2c-1.2,0.2-2.4,0-3.5-0.4
			c-1.1-0.4-1.8-1.3-1.9-2.6c-0.1-1.3,0.4-2.2,1.3-3c2.2-1.7,5.1-1.8,7.7-2.1c0.3-1.4,0.2-2.6-0.4-3.8c-0.8-1.4-3.4-1-4.1,0.5
			c-0.3,0.6-0.3,1.3-0.7,1.8c-0.4,0.4-1,0.5-1.5,0.4c-0.6-0.1-1-0.6-1-1.3c0-0.7,0.4-1.2,0.9-1.5c2.4-1.5,5.2-1.9,7.8-1
			c1.1,0.4,2.1,0.9,2.8,1.8c0.7,0.9,1,2,1,3.1c0,1.3,0,2.6,0,3.9c0,1.6-0.2,3.3,2,3.8C211.7,21.6,211.6,21.7,211.5,21.9z
			 M205.1,14.7c-1.9,0.1-3.5,0.6-4.8,2c-0.7,0.8-0.8,2.2-0.3,3c1.2,2,3.5,0.7,5.1,0.1C205.1,18,205.1,16.5,205.1,14.7z M205.6,9.8
			c0.1,1.2,0.3,2.4,0.3,3.6c0,2.1,0,4.2-0.1,6.2c0,0.4,0,0.9,0.1,1.4c0.9,0,1.7,0,2.4,0c-0.1-1.3-0.1-2.6-0.1-3.9
			c0-1.4,0-2.7-0.1-4.1C208,11.3,206.9,10,205.6,9.8z M200.3,15.3c-1.4,0.4-2.8,0.8-3.4,2.4c-0.3,1-0.1,1.9,0.6,2.6
			c0.7,0.7,1.7,1.1,2.4,0.8c-1.2-0.7-1.8-1.6-1.6-3C198.3,16.7,199.5,16.2,200.3,15.3z M198.4,12.2c0.4-0.9,0.7-1.6,1.1-2.6
			C198,10.3,197.7,11.1,198.4,12.2z"/>
		<path class="st0" d="M84,22c-2.8,0-5.3,0-8.2,0c0.2-0.2,0.3-0.5,0.6-0.6c0.3-0.2,0.5-0.2,0.7-0.4c0.4-0.4,0.5-1,0.5-1.6
			c0-2.5,0-4.9-0.2-7.3c-0.1-1.7-1.3-2.9-2.9-2.4c-0.9,0.3-1.7,1-2.5,1.6c-0.7,0.6-1.7,1.1-1.7,2.2c0,1.8,0.1,3.7,0.1,5.5
			c0,1.1,0.3,2,1.4,2.4c0.1,0,0.2,0.2,0.2,0.5c-2.6,0.2-5.1,0.1-7.6-0.1c1.8-1.7,1.4-1.4,1.5-3.9c0-1.8,0-3.6,0-5.4
			c0-1.2-0.4-2.4-1.5-2.9c-0.1,0-0.1-0.2-0.3-0.5c2-0.2,4-0.3,6-0.5c0.1,1.1,0.2,1.9,0.3,2.9c0.8-0.6,1.3-1.1,1.9-1.5
			c1.8-1.3,4.1-1.7,6.2-0.9c2,0.8,3.5,2.6,3.5,4.9c0,1.1,0,2.2,0,3.3c0,0.8,0,1.5,0.1,2.3C82.4,20.6,83.2,21.3,84,22z M69.2,21
			c-0.1-0.9-0.2-1.7-0.3-2.6c-0.1-2.5-0.1-5-0.1-7.5c0-0.5-0.1-0.9-0.2-1.4c-1,0-1.8,0-2.5,0c0.8,3.8,0.4,7.6,0.5,11.5
			C67.5,21,68.4,21,69.2,21z M77,9.4c1.3,2.2,1.3,2.2,1.3,5.1c0,2.2,0,4.4,0,6.7c0.9,0,1.7,0,2.6,0c-0.1-1-0.1-1.9-0.2-2.8
			c-0.1-1.9-0.1-3.8-0.3-5.7C80.2,10.7,78.9,9.6,77,9.4z"/>
		<path class="st0" d="M118.5,22c-1.9,0-3.8,0-5.7,0c-0.2-0.4-0.4-0.7-0.6-1.1c-0.4,0.2-0.7,0.3-1,0.5c-1.8,0.8-3.8,0.9-5.6,0.3
			c-1.4-0.4-2.9-1.3-2.9-3c0-1.4,0.9-2.3,2-3c2.3-1.3,5-1.4,7.5-1.7c0.3-1.5,0.2-2.8-0.5-4c-0.4-0.7-1.2-0.8-1.9-0.7
			c-0.7,0.1-1.2,0.6-1.4,1.3c0,0.2-0.1,0.4-0.1,0.5c-0.2,0.8-0.4,1.5-1.2,1.7c-0.9,0.2-1.7-0.1-2.3-0.8c-0.7-0.8,0-1.5,0.6-2
			c0.8-0.5,1.6-1,2.6-1.2c2.5-0.6,5.6-0.3,7.5,1.8c1.8,2,1.4,5,1.4,7.6C116.9,20.5,116.9,20.5,118.5,22z M112.4,14.8
			c-1.6,0-2.9,0.3-4,1.2c-1.3,1-1.9,3.2-0.5,4.4c0.7,0.6,1.6,0.7,2.4,0.5c0.4-0.1,0.9-0.3,1.3-0.6c0.3-0.2,0.7-0.4,0.8-0.8
			C112.5,18,112.4,16.4,112.4,14.8z M112.7,9.5c0.1,1.3,0.4,2.4,0.4,3.6c0.1,2.3,0.1,4.5,0.1,6.8c0,0.4,0.1,0.8,0.2,1.3
			c0.9,0,1.7,0,2.3,0c0-1.9,0-3.7-0.1-5.5c-0.1-1.3-0.1-2.8-0.6-4.1C114.4,10.6,113.6,9.9,112.7,9.5z M107.6,15.3
			c-1.2,0.1-2.9,0.8-3.6,1.6c-0.9,1.1-0.8,2.5,0.3,3.4c0.4,0.3,0.9,0.5,1.4,0.8c0.2,0.1,0.5,0.2,0.7,0.3c0.2,0.1,0.5-0.1,0.7-0.1
			C104.9,18.9,105,18.2,107.6,15.3z M107.6,9.7c-1.2-0.1-2,0.6-2.4,1.7C106,12.4,106.4,12.2,107.6,9.7z"/>
		<path class="st0" d="M24.1,21.9c-1.8,0-3.6,0-5.5,0c-0.2-0.3-0.4-0.6-0.6-0.9c-1.1,0.3-2.1,0.8-3.2,0.9c-1.8,0.3-3.9-0.2-5.2-1.6
			c-1.2-1.3-1-3.1,0.4-4.1c1.1-0.8,2.3-1.2,3.6-1.6c1.4-0.4,2.7-0.5,4.1-0.7c0.2-1.2,0.2-3-0.7-4c-0.6-0.7-2-0.7-2.6,0.1
			c-0.5,0.8-0.2,2.1-1,2.6c-1,0.7-2.3,0.1-2.9-0.9c-0.2-1.2,0.4-1.8,1.2-2.2c2.7-1.4,6-1.6,8.5,0.4c2.3,1.8,1.9,5.2,2.1,7.9
			c0.1,1.5-0.1,3.1,1.9,3.7C24.2,21.6,24.2,21.8,24.1,21.9z M17.9,15c-2-0.2-4.7,1-4.7,3.5c0,1.1,0.7,2,1.6,2.3
			c1.2,0.3,2.2-0.5,3.3-1.1C18.1,18,18,16.5,17.9,15z M18.1,9.7c1.2,3.7,0.3,7.6,1,11.3c0.7,0,1.4,0,1.9,0c-0.1-2.1-0.1-4.1-0.2-6.1
			c-0.1-1.1-0.2-2.4-0.7-3.4C19.7,10.6,18.9,10.1,18.1,9.7z M13.3,21.2c-0.7-0.6-1.6-1.3-1.6-2.4c0-1.1,0.8-2.2,1.2-3.2
			c-1.4,0.2-3.3,1.2-3.1,3C9.9,20.4,11.9,21.2,13.3,21.2z M12.5,12c0.3-0.7,0.5-1.4,0.8-2.1c-1.3,0.2-1.7,0.6-1.9,1.7
			C11.7,11.7,12,11.8,12.5,12z"/>
		<path class="st0" d="M53.7,14.5c-0.5,2.5,0.9,5.1,3,6c2.3,0.9,4.3-0.2,6.2-1.5c0.1,0.1,0.1,0.2,0.2,0.3c-0.1,0.2-0.2,0.5-0.4,0.6
			c-2,1.9-5,2.4-7.6,1.9c-2.7-0.5-5.5-2.3-6.1-5.4c-0.3-1.8,0.2-3.6,1.3-5c3.1-3.6,9-4.1,12.4-0.7c1,1,1.5,2.3,1.5,3.8
			C60.7,14.5,57.2,14.5,53.7,14.5z M59.7,13.6c0.2-1.1,0-2.4-0.7-3.3c-0.6-0.9-1.5-1.2-2.4-1.1c-1,0-1.8,0.4-2.4,1.3
			c-0.6,0.9-0.8,2.1-0.5,3.1C55.7,13.6,57.7,13.6,59.7,13.6z M55.2,21.1c-3.8-3.3-4.2-5.1-2.5-10.5c-2.1,0.9-3.5,3.7-2.9,6.1
			C50.3,19.1,52.9,21,55.2,21.1z M59.8,9.8c0.4,1.4,0.8,2.6,1.2,3.9c0.5,0,1,0,1.7,0C62.4,11.7,61.3,10.7,59.8,9.8z"/>
		<path class="st0" d="M194,13.1c-0.2-0.3-0.4-0.5-0.5-0.8c-0.9-1.8-2.3-2.8-4.1-3.1c-0.5-0.1-1.1,0-1.5,0.3c-1,0.5-1.1,1.7-0.2,2.3
			c0.9,0.7,1.9,1.1,2.8,1.7c1,0.5,1.9,1.1,2.8,1.8c2.2,1.6,2,4.2-0.2,5.7c-1.7,1.1-3.6,1.2-5.5,1c-1.5-0.1-3-0.5-4.7-0.8
			c-0.1-1.6-0.2-3-0.3-4.5c0.1,0,0.2-0.1,0.4-0.1c0.2,0.4,0.5,0.9,0.7,1.3c0.8,1.3,1.9,2.5,3.3,3c1.4,0.5,3.2,0.5,4.1-0.9
			c0.6-1,0.2-2-0.7-2.6c-1.2-0.7-2.4-1.4-3.6-2.1c-0.7-0.4-1.3-0.8-1.9-1.3c-0.7-0.6-1.1-1.6-0.9-2.6c0.2-1.1,1.1-1.7,2-2.2
			c2.3-1.2,5-0.7,7.2,0.1c0.7,0.2,0.8,0.7,0.9,1.4c0.1,0.7,0.2,1.5,0.3,2.2C194.3,13,194.2,13.1,194,13.1z M191.3,20.8
			c1.1-0.1,2.1-1.2,2.1-2.4c0.1-1.6-1.5-2.6-2.6-3.3c-1.3-0.8-2.7-1.5-4-2.3c-1-0.6-1.2-1.3-0.8-2.5c0-0.1,0.1-0.3,0.1-0.5
			c-0.7,0.4-1.3,1.1-1.4,2c-0.1,1.1,0.7,1.7,1.4,2.3c1,0.7,2,1.3,3.1,1.8c0.9,0.5,2.1,1,2.7,2C192.4,18.9,191.7,19.9,191.3,20.8z
			 M183.7,20.7c0.6,0.1,1,0.1,1.5,0.2c0-0.1,0.1-0.2,0.1-0.3c-0.5-0.3-1-0.7-1.7-1.2C183.6,20,183.6,20.3,183.7,20.7z"/>
		<path class="st0" d="M0.3,0.5c2.1-0.2,3.9-0.6,6-0.4c0.1,0.6,0.1,1.1,0.2,1.5c0.1,3.8,0.3,7.7,0.4,11.5c0.1,1.8,0.1,3.7,0.2,5.5
			c0.1,1.3,0.4,2.5,1.6,3c0.1,0,0.1,0.2,0.2,0.4c-2.6,0-5.1,0-7.7,0c0.1-0.3,0.2-0.5,0.3-0.6c1.2-0.4,1.3-1.6,1.3-2.8
			c-0.1-1.8-0.1-3.5-0.2-5.3c-0.1-1.7-0.1-3.5-0.2-5.2c-0.1-1.6,0-3.3-0.2-5C2,2.6,1.8,2,1.4,1.6C1.2,1.3,0.9,1.3,0.6,1.1
			C0.4,1,0.4,0.7,0.3,0.5z M2.7,1c0.4,6.8,0.6,13.4,0.6,20c0.8,0,1.6,0,2.2,0C5.3,14.3,5,7.7,4.8,0.9C3.9,0.9,3.2,1,2.7,1z"/>
	</g>
	<rect class="st1" width="212" height="22"/>
</g>
</svg>
