<?xml version="1.0" encoding="utf-8"?>
<!-- Generator: Adobe Illustrator 21.0.2, SVG Export Plug-In . SVG Version: 6.00 Build 0)  -->
<svg version="1.1" id="Layer_1" xmlns="http://www.w3.org/2000/svg" xmlns:xlink="http://www.w3.org/1999/xlink" x="0px" y="0px"
	 viewBox="0 0 20 20" style="enable-background:new 0 0 20 20;" xml:space="preserve">
<g>
	<path d="M17.7,5.9c0,0.2,0,0.3,0,0.5c0,5.2-4,11.3-11.3,11.3c-2.2,0-4.3-0.7-6.1-1.8c0.3,0,0.6,0,1,0c1.9,0,3.6-0.6,4.9-1.7
		c-1.7,0-3.2-1.2-3.7-2.8c0.2,0,0.5,0.1,0.7,0.1c0.4,0,0.7,0,1-0.1c-1.8-0.4-3.2-2-3.2-3.9c0,0,0,0,0,0C1.6,7.8,2.2,8,2.9,8
		C1.8,7.3,1.1,6.1,1.1,4.7c0-0.7,0.2-1.4,0.5-2c2,2.4,4.9,4,8.2,4.2C9.8,6.6,9.8,6.3,9.8,6c0-2.2,1.8-4,4-4c1.1,0,2.2,0.5,2.9,1.3
		c0.9-0.2,1.8-0.5,2.5-1c-0.3,0.9-0.9,1.7-1.7,2.2c0.8-0.1,1.6-0.3,2.3-0.6C19.1,4.6,18.5,5.3,17.7,5.9z"/>
</g>
</svg>
